<svg width="90" height="90" viewBox="0 0 90 90" fill="none" xmlns="http://www.w3.org/2000/svg">
<path d="M73.125 33.75C70.2261 33.8273 67.4147 32.7528 65.3062 30.7619C63.1978 28.771 61.964 26.0258 61.875 23.1272C61.9274 21.0577 62.5641 19.0453 63.7116 17.3222L70.7906 6.78942C71.0626 6.42727 71.4151 6.13337 71.8203 5.93096C72.2254 5.72854 72.6721 5.62317 73.125 5.62317C73.5779 5.62317 74.0246 5.72854 74.4297 5.93096C74.8349 6.13337 75.1874 6.42727 75.4594 6.78942L82.4484 17.1844C83.643 18.9417 84.3114 21.0033 84.375 23.1272C84.286 26.0258 83.0522 28.771 80.9438 30.7619C78.8353 32.7528 76.0239 33.8273 73.125 33.75ZM73.125 13.396L68.4675 20.3232C67.8855 21.1471 67.5499 22.1197 67.5 23.1272C67.6632 24.5044 68.326 25.7739 69.3628 26.695C70.3995 27.6161 71.7382 28.1249 73.125 28.1249C74.5118 28.1249 75.8505 27.6161 76.8872 26.695C77.924 25.7739 78.5868 24.5044 78.75 23.1272C78.687 22.0651 78.321 21.0432 77.6953 20.1825L73.125 13.396ZM66.0937 84.3751H23.9062C19.3755 84.3799 15.0045 82.701 11.6419 79.6645C8.27931 76.6278 6.16497 72.4501 5.70935 67.9423C5.25373 63.4345 6.48934 58.9182 9.1763 55.2701C11.8633 51.6221 15.8099 49.1026 20.25 48.2007C21.4484 42.5244 24.5615 37.4326 29.0676 33.7787C33.5736 30.1247 39.1986 28.1306 45 28.1306C50.8014 28.1306 56.4264 30.1247 60.9324 33.7787C65.4385 37.4326 68.5516 42.5244 69.75 48.2007C74.1901 49.1026 78.1367 51.6221 80.8237 55.2701C83.5107 58.9182 84.7463 63.4345 84.2906 67.9423C83.835 72.4501 81.7207 76.6278 78.3581 79.6645C74.9955 82.701 70.6245 84.3799 66.0937 84.3751ZM45 33.75C40.1982 33.7546 35.5636 35.5138 31.9683 38.6968C28.373 41.8798 26.0649 46.267 25.4784 51.0329L25.1972 53.3166L22.905 53.4966C19.6404 53.7452 16.5995 55.2503 14.422 57.6953C12.2445 60.1403 11.1002 63.3346 11.2299 66.6061C11.3597 69.8776 12.7532 72.9712 15.1174 75.2362C17.4817 77.5011 20.6322 78.7607 23.9062 78.7501H66.0937C69.3678 78.7607 72.5183 77.5011 74.8826 75.2362C77.2468 72.9712 78.6404 69.8776 78.7701 66.6061C78.8998 63.3346 77.7555 60.1403 75.578 57.6953C73.4006 55.2503 70.3596 53.7452 67.095 53.4966L64.8028 53.3166L64.5244 51.0329C63.9366 46.267 61.6278 41.8801 58.0322 38.6973C54.4366 35.5145 49.802 33.7551 45 33.75Z" fill="white"/>
</svg>
