<svg width="256" height="104" viewBox="0 0 256 104" fill="none" xmlns="http://www.w3.org/2000/svg">
<path d="M98.64 19.36H104.36L108.8 36.08L109.44 39.16H109.76L110.6 36.08L114.72 23.2H119.76L123.92 36.08L124.72 39.12H125.04L125.64 36.08L129.8 19.36H135.52L127.92 48H122.72L118.24 34.2L117.4 31.04H117.08L116.24 34.2L111.76 48H106.56L98.64 19.36ZM154.777 43.28C153.87 44.88 152.643 46.1733 151.097 47.16C149.577 48.1467 147.71 48.64 145.497 48.64C144.003 48.64 142.617 48.3867 141.337 47.88C140.083 47.3467 138.99 46.6133 138.057 45.68C137.123 44.7467 136.39 43.6533 135.857 42.4C135.35 41.12 135.097 39.72 135.097 38.2C135.097 36.7867 135.35 35.4533 135.857 34.2C136.363 32.92 137.07 31.8133 137.977 30.88C138.883 29.92 139.95 29.16 141.177 28.6C142.43 28.04 143.803 27.76 145.297 27.76C146.87 27.76 148.27 28.0267 149.497 28.56C150.723 29.0667 151.75 29.7867 152.577 30.72C153.403 31.6267 154.03 32.7067 154.457 33.96C154.883 35.2133 155.097 36.5733 155.097 38.04C155.097 38.2267 155.097 38.3867 155.097 38.52C155.07 38.68 155.057 38.8267 155.057 38.96C155.03 39.0933 155.017 39.24 155.017 39.4H140.257C140.363 40.2 140.577 40.8933 140.897 41.48C141.243 42.04 141.657 42.52 142.137 42.92C142.643 43.2933 143.19 43.5733 143.777 43.76C144.363 43.92 144.963 44 145.577 44C146.777 44 147.763 43.7333 148.537 43.2C149.337 42.64 149.963 41.9467 150.417 41.12L154.777 43.28ZM150.017 35.68C149.99 35.3333 149.87 34.9467 149.657 34.52C149.47 34.0933 149.177 33.6933 148.777 33.32C148.403 32.9467 147.923 32.64 147.337 32.4C146.777 32.16 146.097 32.04 145.297 32.04C144.177 32.04 143.19 32.36 142.337 33C141.483 33.64 140.883 34.5333 140.537 35.68H150.017ZM170.718 45.92H170.398C169.785 46.6667 169.038 47.3067 168.158 47.84C167.305 48.3733 166.198 48.64 164.838 48.64C163.825 48.64 162.865 48.4667 161.958 48.12C161.078 47.8 160.305 47.3467 159.638 46.76C158.972 46.1733 158.452 45.4667 158.078 44.64C157.705 43.8133 157.518 42.9067 157.518 41.92C157.518 40.9067 157.718 40 158.118 39.2C158.518 38.3733 159.078 37.6667 159.798 37.08C160.518 36.4933 161.358 36.0533 162.318 35.76C163.305 35.44 164.372 35.28 165.518 35.28C166.798 35.28 167.852 35.3867 168.678 35.6C169.505 35.7867 170.185 35.9867 170.718 36.2V35.6C170.718 34.56 170.305 33.7067 169.478 33.04C168.652 32.3467 167.625 32 166.398 32C164.585 32 163.052 32.76 161.798 34.28L157.998 31.68C160.078 29.0667 162.918 27.76 166.518 27.76C169.558 27.76 171.878 28.48 173.478 29.92C175.078 31.3333 175.878 33.44 175.878 36.24V48H170.718V45.92ZM170.718 40.04C170.105 39.7467 169.465 39.52 168.798 39.36C168.158 39.1733 167.452 39.08 166.678 39.08C165.425 39.08 164.452 39.36 163.758 39.92C163.092 40.4533 162.758 41.12 162.758 41.92C162.758 42.72 163.078 43.36 163.718 43.84C164.385 44.32 165.145 44.56 165.998 44.56C166.692 44.56 167.332 44.44 167.918 44.2C168.505 43.9333 168.998 43.6 169.398 43.2C169.825 42.7733 170.145 42.2933 170.358 41.76C170.598 41.2 170.718 40.6267 170.718 40.04ZM181.814 32.88H178.374V28.4H181.814V22.4H187.054V28.4H191.854V32.88H187.054V40.48C187.054 40.9333 187.094 41.36 187.174 41.76C187.281 42.1333 187.467 42.4533 187.734 42.72C188.107 43.1467 188.641 43.36 189.334 43.36C189.787 43.36 190.147 43.32 190.414 43.24C190.681 43.1333 190.934 43 191.174 42.84L192.654 47.44C192.041 47.7333 191.374 47.9467 190.654 48.08C189.961 48.24 189.187 48.32 188.334 48.32C187.347 48.32 186.454 48.1733 185.654 47.88C184.881 47.56 184.227 47.1333 183.694 46.6C182.441 45.4 181.814 43.6933 181.814 41.48V32.88ZM195.904 19.36H201.144V27.4L200.824 30.96H201.144C201.704 30.0267 202.504 29.2667 203.544 28.68C204.611 28.0667 205.797 27.76 207.104 27.76C209.637 27.76 211.504 28.5067 212.704 30C213.931 31.4933 214.544 33.5333 214.544 36.12V48H209.304V36.76C209.304 35.4 208.984 34.3733 208.344 33.68C207.704 32.96 206.811 32.6 205.664 32.6C204.944 32.6 204.304 32.76 203.744 33.08C203.184 33.3733 202.704 33.7867 202.304 34.32C201.931 34.8533 201.637 35.48 201.424 36.2C201.237 36.8933 201.144 37.64 201.144 38.44V48H195.904V19.36ZM237.433 43.28C236.526 44.88 235.299 46.1733 233.753 47.16C232.233 48.1467 230.366 48.64 228.153 48.64C226.659 48.64 225.273 48.3867 223.993 47.88C222.739 47.3467 221.646 46.6133 220.713 45.68C219.779 44.7467 219.046 43.6533 218.513 42.4C218.006 41.12 217.753 39.72 217.753 38.2C217.753 36.7867 218.006 35.4533 218.513 34.2C219.019 32.92 219.726 31.8133 220.633 30.88C221.539 29.92 222.606 29.16 223.833 28.6C225.086 28.04 226.459 27.76 227.953 27.76C229.526 27.76 230.926 28.0267 232.153 28.56C233.379 29.0667 234.406 29.7867 235.233 30.72C236.059 31.6267 236.686 32.7067 237.113 33.96C237.539 35.2133 237.753 36.5733 237.753 38.04C237.753 38.2267 237.753 38.3867 237.753 38.52C237.726 38.68 237.713 38.8267 237.713 38.96C237.686 39.0933 237.673 39.24 237.673 39.4H222.913C223.019 40.2 223.233 40.8933 223.553 41.48C223.899 42.04 224.313 42.52 224.793 42.92C225.299 43.2933 225.846 43.5733 226.433 43.76C227.019 43.92 227.619 44 228.233 44C229.433 44 230.419 43.7333 231.193 43.2C231.993 42.64 232.619 41.9467 233.073 41.12L237.433 43.28ZM232.673 35.68C232.646 35.3333 232.526 34.9467 232.313 34.52C232.126 34.0933 231.833 33.6933 231.433 33.32C231.059 32.9467 230.579 32.64 229.993 32.4C229.433 32.16 228.753 32.04 227.953 32.04C226.833 32.04 225.846 32.36 224.993 33C224.139 33.64 223.539 34.5333 223.193 35.68H232.673ZM241.099 28.4H246.019V31.12H246.339C246.579 30.64 246.899 30.2 247.299 29.8C247.699 29.4 248.139 29.0533 248.619 28.76C249.126 28.4667 249.659 28.24 250.219 28.08C250.806 27.92 251.379 27.84 251.939 27.84C252.633 27.84 253.219 27.9067 253.699 28.04C254.206 28.1733 254.633 28.3467 254.979 28.56L253.579 33.32C253.259 33.16 252.899 33.04 252.499 32.96C252.126 32.8533 251.659 32.8 251.099 32.8C250.379 32.8 249.726 32.9467 249.139 33.24C248.553 33.5067 248.046 33.8933 247.619 34.4C247.219 34.9067 246.899 35.5067 246.659 36.2C246.446 36.8667 246.339 37.6 246.339 38.4V48H241.099V28.4Z" fill="#7947F7"/>
<g filter="url(#filter0_dddd_263_38)">
<g clip-path="url(#clip0_263_38)">
<rect x="11" y="2" width="63" height="63" rx="31.5" fill="url(#paint0_linear_263_38)"/>
<path opacity="0.6" d="M59.2839 16.4134H55.6389C54.516 16.4134 53.6057 15.4696 53.6057 14.3053C53.6057 13.141 54.516 12.1972 55.6389 12.1972C55.9778 12.1972 56.2973 12.2831 56.5782 12.4351C56.9694 11.2586 58.0466 10.4134 59.3143 10.4134C60.9122 10.4134 62.2076 11.7565 62.2076 13.4134C62.2076 13.4473 62.2071 13.4812 62.206 13.5149C62.6725 13.7747 62.9896 14.2854 62.9896 14.8729C62.9896 15.7237 62.3244 16.4134 61.5038 16.4134H59.3143C59.3097 16.4134 59.2839 16.4134 59.2839 16.4134H59.3143H59.2839Z" fill="url(#paint1_linear_263_38)"/>
<path fill-rule="evenodd" clip-rule="evenodd" d="M40.5217 32.75L86.7202 58.1893V79.9776H-1.75L-1.33185 59.2403L40.5217 32.75Z" fill="#2B1685"/>
<path fill-rule="evenodd" clip-rule="evenodd" d="M39.886 34.7841L42.4851 35.42L42.2846 33.7325L56.5931 41.6406H54.1659L53.1401 42.3961L47.3696 39.1379L51.805 43.3793L50.6472 44.232L51.3605 46.1712L46.2114 48.4971L40.9802 43.314L44.3459 43.9275L42.2147 40.6245L47.3696 43.0212L43.0081 39.1379L44.9716 39.7999L39.886 34.7841Z" fill="url(#paint2_linear_263_38)"/>
<path fill-rule="evenodd" clip-rule="evenodd" d="M57.1831 43.2864L60.4027 42.0785L74.2747 51.6478L72.1005 53.9117L69.7042 53.1001L71.215 54.838L67.4784 58.7341L62.0708 56.3638L65.1552 61.9151L55.4252 55.0275L55.1664 50.6504L52.7268 47.3204L55.004 47.9046L54.2254 44.7395L57.6805 44.3728L57.1831 43.2864Z" fill="url(#paint3_linear_263_38)"/>
<path fill-rule="evenodd" clip-rule="evenodd" d="M36.6969 48.2399L41.5902 50.8437V49.0901L51.6948 57.9743L50.0956 54.42L55.999 56.3638L61.7858 63.3286L57.3051 63.9653L48.2396 59.6536L52.8147 64.6034L47.4136 65.371L36.6969 55.7476V52.6882L39.886 54.42L36.6969 48.2399Z" fill="url(#paint4_linear_263_38)"/>
<path fill-rule="evenodd" clip-rule="evenodd" d="M20.7054 49.0747L20.2586 46.712L25.3039 48.4971L30.3491 52.6071L25.3119 52.0787L20.7054 49.0747Z" fill="url(#paint5_linear_263_38)"/>
<path fill-rule="evenodd" clip-rule="evenodd" d="M23.1126 55.6362L21.4889 52.9694L25.5743 53.9282L24.9173 55.0096L23.1126 55.6362Z" fill="url(#paint6_linear_263_38)"/>
<path fill-rule="evenodd" clip-rule="evenodd" d="M25.0557 44.867H26.656L25.9172 43.314L28.08 44.2601L30.3491 46.1161L27.4313 46.9789L25.0557 44.867Z" fill="url(#paint7_linear_263_38)"/>
<path opacity="0.5" d="M22.1248 24.5H27.1657C28.7186 24.5 29.9774 23.2022 29.9774 21.6014C29.9774 20.0005 28.7186 18.7027 27.1657 18.7027C26.697 18.7027 26.2552 18.8209 25.8667 19.0299C25.3256 17.4122 23.8359 16.25 22.0828 16.25C19.8729 16.25 18.0814 18.0968 18.0814 20.375C18.0814 20.4217 18.0822 20.4682 18.0837 20.5145C17.4386 20.8718 17 21.574 17 22.3818C17 23.5516 17.9199 24.5 19.0548 24.5H22.0828C22.0891 24.5 22.1248 24.5 22.1248 24.5H22.0828H22.1248Z" fill="url(#paint8_linear_263_38)"/>
<circle cx="63.5" cy="26" r="0.75" fill="#E0E0F9"/>
<circle opacity="0.8" cx="39.5" cy="47.75" r="0.75" fill="#E0E0F9"/>
<circle opacity="0.9" cx="51.5" cy="14.75" r="0.75" fill="#E0E0F9"/>
<circle opacity="0.7" cx="54.5" cy="35" r="0.75" fill="#E0E0F9"/>
<circle opacity="0.7" cx="50.75" cy="53" r="0.75" fill="#E0E0F9"/>
<circle cx="41.375" cy="36.875" r="0.375" fill="#E0E0F9"/>
<circle cx="35.375" cy="38.375" r="0.375" fill="#E0E0F9"/>
<circle cx="27.875" cy="38.375" r="0.375" fill="#E0E0F9"/>
<circle cx="22.625" cy="26.375" r="0.375" fill="#E0E0F9"/>
<circle cx="30.875" cy="21.125" r="0.375" fill="#E0E0F9"/>
<circle cx="0.375" cy="0.375" r="0.375" transform="matrix(-1 0 0 1 62 48.5)" fill="#E0E0F9"/>
<circle cx="0.375" cy="0.375" r="0.375" transform="matrix(-1 0 0 1 64.25 43.25)" fill="#E0E0F9"/>
<circle cx="0.375" cy="0.375" r="0.375" transform="matrix(-1 0 0 1 46.25 47.75)" fill="#E0E0F9"/>
<circle cx="0.375" cy="0.375" r="0.375" transform="matrix(-1 0 0 1 48.5 39.5)" fill="#E0E0F9"/>
<circle cx="0.375" cy="0.375" r="0.375" transform="matrix(-1 0 0 1 43.25 30.5)" fill="#E0E0F9"/>
<circle cx="0.375" cy="0.375" r="0.375" transform="matrix(-1 0 0 1 50 32.75)" fill="#E0E0F9"/>
<circle cx="0.375" cy="0.375" r="0.375" transform="matrix(-1 0 0 1 56 20)" fill="#E0E0F9"/>
<circle cx="35.3839" cy="52.8313" r="0.375" transform="rotate(-50 35.3839 52.8313)" fill="#E0E0F9"/>
<circle cx="30.136" cy="50.3664" r="0.375" transform="rotate(-50 30.136 50.3664)" fill="#E0E0F9"/>
<circle cx="24.2783" cy="50.3465" r="0.375" transform="rotate(-50 24.2783 50.3465)" fill="#E0E0F9"/>
<circle cx="0.375" cy="0.375" r="0.375" transform="matrix(-1 0 0 1 68.75 46.25)" fill="#E0E0F9"/>
<circle cx="0.375" cy="0.375" r="0.375" transform="matrix(-1 0 0 1 67.25 42.5)" fill="#E0E0F9"/>
<circle cx="0.375" cy="0.375" r="0.375" transform="matrix(-1 0 0 1 62 33.5)" fill="#E0E0F9"/>
<circle cx="0.375" cy="0.375" r="0.375" transform="matrix(-1 0 0 1 56.75 39.5)" fill="#E0E0F9"/>
<circle cx="0.375" cy="0.375" r="0.375" transform="matrix(-1 0 0 1 55.25 26.75)" fill="#E0E0F9"/>
<circle cx="0.375" cy="0.375" r="0.375" transform="matrix(-1 0 0 1 19.25 47)" fill="#E0E0F9"/>
<circle cx="0.375" cy="0.375" r="0.375" transform="matrix(-1 0 0 1 21.5 38.75)" fill="#E0E0F9"/>
<circle cx="0.375" cy="0.375" r="0.375" transform="matrix(-1 0 0 1 17.75 34.25)" fill="#E0E0F9"/>
<circle cx="0.375" cy="0.375" r="0.375" transform="matrix(-1 0 0 1 13.25 28.25)" fill="#E0E0F9"/>
<circle cx="0.375" cy="0.375" r="0.375" transform="matrix(-1 0 0 1 38 44)" fill="#E0E0F9"/>
<circle cx="0.375" cy="0.375" r="0.375" transform="matrix(-1 0 0 1 31.25 31.25)" fill="#E0E0F9"/>
<circle cx="0.375" cy="0.375" r="0.375" transform="matrix(0 1 1 0 48.5 20.75)" fill="#E0E0F9"/>
<circle cx="0.375" cy="0.375" r="0.375" transform="matrix(0 1 1 0 35.75 27.5)" fill="#E0E0F9"/>
<circle cx="18.875" cy="15.125" r="0.375" transform="rotate(90 18.875 15.125)" fill="#E0E0F9"/>
<circle cx="30.875" cy="21.125" r="0.375" transform="rotate(90 30.875 21.125)" fill="#E0E0F9"/>
<circle cx="0.375" cy="0.375" r="0.375" transform="matrix(0 1 1 0 29.75 7.25)" fill="#E0E0F9"/>
<circle cx="0.375" cy="0.375" r="0.375" transform="matrix(0 1 1 0 51.5 8.75)" fill="#E0E0F9"/>
<circle cx="0.375" cy="0.375" r="0.375" transform="matrix(0 1 1 0 41 5)" fill="#E0E0F9"/>
<circle cx="0.375" cy="0.375" r="0.375" transform="matrix(0 1 1 0 39.5 11.75)" fill="#E0E0F9"/>
<circle cx="0.375" cy="0.375" r="0.375" transform="matrix(0 1 1 0 31.25 14.75)" fill="#E0E0F9"/>
<circle cx="0.375" cy="0.375" r="0.375" transform="matrix(-1 0 0 1 67.25 28.25)" fill="#E0E0F9"/>
<circle cx="0.375" cy="0.375" r="0.375" transform="matrix(-1 0 0 1 62 19.25)" fill="#E0E0F9"/>
</g>
</g>
<defs>
<filter id="filter0_dddd_263_38" x="0" y="0" width="85" height="104" filterUnits="userSpaceOnUse" color-interpolation-filters="sRGB">
<feFlood flood-opacity="0" result="BackgroundImageFix"/>
<feColorMatrix in="SourceAlpha" type="matrix" values="0 0 0 0 0 0 0 0 0 0 0 0 0 0 0 0 0 0 127 0" result="hardAlpha"/>
<feOffset dy="2"/>
<feGaussianBlur stdDeviation="2"/>
<feColorMatrix type="matrix" values="0 0 0 0 0.47451 0 0 0 0 0.278431 0 0 0 0 0.968627 0 0 0 0.1 0"/>
<feBlend mode="normal" in2="BackgroundImageFix" result="effect1_dropShadow_263_38"/>
<feColorMatrix in="SourceAlpha" type="matrix" values="0 0 0 0 0 0 0 0 0 0 0 0 0 0 0 0 0 0 127 0" result="hardAlpha"/>
<feOffset dy="7"/>
<feGaussianBlur stdDeviation="3.5"/>
<feColorMatrix type="matrix" values="0 0 0 0 0.47451 0 0 0 0 0.278431 0 0 0 0 0.968627 0 0 0 0.09 0"/>
<feBlend mode="normal" in2="effect1_dropShadow_263_38" result="effect2_dropShadow_263_38"/>
<feColorMatrix in="SourceAlpha" type="matrix" values="0 0 0 0 0 0 0 0 0 0 0 0 0 0 0 0 0 0 127 0" result="hardAlpha"/>
<feOffset dy="16"/>
<feGaussianBlur stdDeviation="4.5"/>
<feColorMatrix type="matrix" values="0 0 0 0 0.47451 0 0 0 0 0.278431 0 0 0 0 0.968627 0 0 0 0.05 0"/>
<feBlend mode="normal" in2="effect2_dropShadow_263_38" result="effect3_dropShadow_263_38"/>
<feColorMatrix in="SourceAlpha" type="matrix" values="0 0 0 0 0 0 0 0 0 0 0 0 0 0 0 0 0 0 127 0" result="hardAlpha"/>
<feOffset dy="28"/>
<feGaussianBlur stdDeviation="5.5"/>
<feColorMatrix type="matrix" values="0 0 0 0 0.47451 0 0 0 0 0.278431 0 0 0 0 0.968627 0 0 0 0.01 0"/>
<feBlend mode="normal" in2="effect3_dropShadow_263_38" result="effect4_dropShadow_263_38"/>
<feBlend mode="normal" in="SourceGraphic" in2="effect4_dropShadow_263_38" result="shape"/>
</filter>
<linearGradient id="paint0_linear_263_38" x1="5.94716" y1="2" x2="5.94716" y2="75.1057" gradientUnits="userSpaceOnUse">
<stop stop-color="#2819CE"/>
<stop offset="1" stop-color="#A267FA"/>
</linearGradient>
<linearGradient id="paint1_linear_263_38" x1="53.6057" y1="10.4134" x2="53.6057" y2="16.4134" gradientUnits="userSpaceOnUse">
<stop stop-color="white"/>
<stop offset="1" stop-color="white" stop-opacity="0.01"/>
</linearGradient>
<linearGradient id="paint2_linear_263_38" x1="33.3655" y1="41.9626" x2="46.2754" y2="59.4437" gradientUnits="userSpaceOnUse">
<stop stop-color="#AAA4FF"/>
<stop offset="1" stop-color="#19D2EA"/>
</linearGradient>
<linearGradient id="paint3_linear_263_38" x1="44.317" y1="53.1358" x2="61.8579" y2="75.9371" gradientUnits="userSpaceOnUse">
<stop stop-color="#AAA4FF"/>
<stop offset="1" stop-color="#19D2EA"/>
</linearGradient>
<linearGradient id="paint4_linear_263_38" x1="26.9051" y1="57.7891" x2="40.3978" y2="81.4353" gradientUnits="userSpaceOnUse">
<stop stop-color="#AAA4FF"/>
<stop offset="1" stop-color="#19D2EA"/>
</linearGradient>
<linearGradient id="paint5_linear_263_38" x1="16.3205" y1="49.998" x2="20.573" y2="58.7084" gradientUnits="userSpaceOnUse">
<stop stop-color="#AAA4FF"/>
<stop offset="1" stop-color="#19D2EA"/>
</linearGradient>
<linearGradient id="paint6_linear_263_38" x1="19.8944" y1="54.456" x2="21.9458" y2="58.2165" gradientUnits="userSpaceOnUse">
<stop stop-color="#AAA4FF"/>
<stop offset="1" stop-color="#19D2EA"/>
</linearGradient>
<linearGradient id="paint7_linear_263_38" x1="22.9897" y1="45.3569" x2="25.8964" y2="50.3809" gradientUnits="userSpaceOnUse">
<stop stop-color="#AAA4FF"/>
<stop offset="1" stop-color="#19D2EA"/>
</linearGradient>
<linearGradient id="paint8_linear_263_38" x1="29.9774" y1="16.25" x2="29.9774" y2="24.5" gradientUnits="userSpaceOnUse">
<stop stop-color="white"/>
<stop offset="1" stop-color="white" stop-opacity="0.01"/>
</linearGradient>
<clipPath id="clip0_263_38">
<rect x="11" y="2" width="63" height="63" rx="31.5" fill="white"/>
</clipPath>
</defs>
</svg>
